<svg xmlns="http://www.w3.org/2000/svg" viewBox="0 0 800 330" role="img" aria-label="Kết nối camera USB vào máy tính"><defs><linearGradient id="table" x2="0" y2="1"><stop stop-color="#49718f"/><stop offset="1" stop-color="#253e58"/></linearGradient><linearGradient id="box" x2="0" y2="1"><stop stop-color="#e5b77c"/><stop offset="1" stop-color="#ba8049"/></linearGradient><linearGradient id="cam" x2="0" y2="1"><stop stop-color="#6999d3"/><stop offset="1" stop-color="#254b79"/></linearGradient><filter id="shadow" x="-30%" y="-30%" width="160%" height="180%"><feDropShadow dx="0" dy="10" stdDeviation="8" flood-color="#030e1c" flood-opacity=".5"/></filter><marker id="arrow" markerWidth="8" markerHeight="8" refX="6" refY="3" orient="auto"><path d="M0 0L6 3L0 6" fill="none" stroke="#6ee7c2" stroke-width="1.4"/></marker></defs><g font-family="Arial,Helvetica,sans-serif"><g filter="url(#shadow)"><rect x="250" y="50" width="380" height="205" rx="14" fill="#0b1729" stroke="#4c77a6" stroke-width="3"/><rect x="264" y="66" width="352" height="19" rx="5" fill="#1d3553"/><path d="M396 256V285H350M482 256V285H528" stroke="#537291" stroke-width="8"/><path d="M340 290H540" stroke="#759ac2" stroke-width="8" stroke-linecap="round"/></g><rect x="270" y="96" width="166" height="65" rx="8" fill="#193a51"/><text x="282" y="119" fill="#c4ddf9" font-size="12" font-weight="600">Camera 1</text><circle cx="287" cy="140" r="3" fill="#64d5b3"/><rect x="445" y="96" width="166" height="65" rx="8" fill="#193a51"/><text x="457" y="119" fill="#c4ddf9" font-size="12" font-weight="600">Camera 2</text><circle cx="462" cy="140" r="3" fill="#64d5b3"/><rect x="270" y="171" width="166" height="65" rx="8" fill="#193a51"/><text x="282" y="194" fill="#c4ddf9" font-size="12" font-weight="600">Camera 3</text><circle cx="287" cy="215" r="3" fill="#64d5b3"/><rect x="445" y="171" width="166" height="65" rx="8" fill="#193a51"/><text x="457" y="194" fill="#c4ddf9" font-size="12" font-weight="600">Camera 4</text><circle cx="462" cy="215" r="3" fill="#64d5b3"/><g transform="translate(128 151) scale(1.2)" filter="url(#shadow)"><path d="M-27-17L9-27 35-11 0 0Z" fill="#8ab9ee"/><path d="M-27-17L0 0 0 29-27 11Z" fill="#284b73"/><path d="M0 0L35-11V17L0 29Z" fill="url(#cam)"/><ellipse cx="17" cy="9" rx="12" ry="14" fill="#10233c"/><ellipse cx="17" cy="9" rx="6" ry="8" fill="#75b8ee"/><ellipse cx="15" cy="6" rx="2" ry="3" fill="#ddf3ff"/></g><g transform="translate(128 239) scale(1.2)" filter="url(#shadow)"><path d="M-27-17L9-27 35-11 0 0Z" fill="#8ab9ee"/><path d="M-27-17L0 0 0 29-27 11Z" fill="#284b73"/><path d="M0 0L35-11V17L0 29Z" fill="url(#cam)"/><ellipse cx="17" cy="9" rx="12" ry="14" fill="#10233c"/><ellipse cx="17" cy="9" rx="6" ry="8" fill="#75b8ee"/><ellipse cx="15" cy="6" rx="2" ry="3" fill="#ddf3ff"/></g><path d="M165 165H220V148H250M165 252H230V224H250" fill="none" stroke="#638ab0" stroke-width="4"/><text x="65" y="83" fill="#c4ddf9" font-size="14" font-weight="600">CẮM USB</text><text x="425" y="308" fill="#6ee7c2" font-size="12" font-weight="600">CHO PHÉP CAMERA</text></g></svg>