<svg xmlns="http://www.w3.org/2000/svg" viewBox="0 0 800 330" role="img" aria-label="Đặt vận đơn vào để bắt đầu quay"><defs><linearGradient id="table" x2="0" y2="1"><stop stop-color="#49718f"/><stop offset="1" stop-color="#253e58"/></linearGradient><linearGradient id="box" x2="0" y2="1"><stop stop-color="#e5b77c"/><stop offset="1" stop-color="#ba8049"/></linearGradient><linearGradient id="cam" x2="0" y2="1"><stop stop-color="#6999d3"/><stop offset="1" stop-color="#254b79"/></linearGradient><filter id="shadow" x="-30%" y="-30%" width="160%" height="180%"><feDropShadow dx="0" dy="10" stdDeviation="8" flood-color="#030e1c" flood-opacity=".5"/></filter><marker id="arrow" markerWidth="8" markerHeight="8" refX="6" refY="3" orient="auto"><path d="M0 0L6 3L0 6" fill="none" stroke="#6ee7c2" stroke-width="1.4"/></marker></defs><g font-family="Arial,Helvetica,sans-serif"><g filter="url(#shadow)"><path d="M165 168L400 67 665 177 425 290Z" fill="url(#table)"/><path d="M165 168V186L425 308V290Z" fill="#1b334b"/><path d="M425 290V308L665 195V177Z" fill="#355571"/></g><g filter="url(#shadow)"><path d="M296 157L400 111 507 159 401 211Z" fill="#edc18b"/><path d="M296 157V213L401 265V211Z" fill="url(#box)"/><path d="M401 211V265L507 211V159Z" fill="#aa7546"/><path d="M382 119L487 169 470 178 365 127Z" fill="#e3a662"/><path d="M321 160L367 141 419 167 373 189Z" fill="#f6f4ed"/><path d="M341 160L357 153 373 161 357 168Z" fill="#172334"/><path d="M343 169L375 184M348 164L382 180M358 159L392 175" stroke="#172334" stroke-width="3"/></g><g transform="translate(195 240) scale(0.9)" filter="url(#shadow)"><path d="M-27-17L9-27 35-11 0 0Z" fill="#8ab9ee"/><path d="M-27-17L0 0 0 29-27 11Z" fill="#284b73"/><path d="M0 0L35-11V17L0 29Z" fill="url(#cam)"/><ellipse cx="17" cy="9" rx="12" ry="14" fill="#10233c"/><ellipse cx="17" cy="9" rx="6" ry="8" fill="#75b8ee"/><ellipse cx="15" cy="6" rx="2" ry="3" fill="#ddf3ff"/></g><path d="M239 240L357 173" stroke="#6ee7c2" stroke-width="2" stroke-dasharray="6 6" marker-end="url(#arrow)"/><g filter="url(#shadow)"><rect x="566" y="52" width="187" height="96" rx="13" fill="#0e1f34" stroke="#3b638d"/><circle cx="589" cy="78" r="5" fill="#ff707c"/></g><text x="601" y="84" fill="#ff818b" font-size="17" font-weight="600">REC</text><text x="585" y="113" fill="#d3e7ff" font-size="13" font-weight="600">Đúng mã vận đơn</text><text x="302" y="45" fill="#6ee7c2" font-size="16" font-weight="600">ĐƯA ĐƠN VÀO</text><path d="M383 55V94" stroke="#6ee7c2" stroke-width="2" marker-end="url(#arrow)"/><text x="229" y="316" fill="#c4ddf9" font-size="13" font-weight="600">Che QR LEAVEIT · Nhãn hướng về cam đọc mã</text></g></svg>